<svg width="24" height="24" viewBox="0 0 24 24" fill="none" xmlns="http://www.w3.org/2000/svg">
<path d="M17.6836 9.27967L12.9054 2.1697C12.8034 2.02614 12.6675 1.90959 12.5097 1.83024C12.3518 1.75089 12.1768 1.71115 12 1.71449C11.6509 1.71449 11.3018 1.86623 11.0945 2.18054L6.31632 9.27967H1.09086C0.490863 9.27967 -4.57764e-05 9.7674 -4.57764e-05 10.3635C-4.57764e-05 10.4611 0.0108633 10.5586 0.0435905 10.6561L2.8145 20.7033C3.06541 21.6137 3.90541 22.2857 4.90905 22.2857H19.0909C20.0945 22.2857 20.9345 21.6137 21.1963 20.7033L23.9672 10.6561L24 10.3635C24 9.7674 23.509 9.27967 22.909 9.27967H17.6836ZM8.72723 9.27967L12 4.51079L15.2727 9.27967H8.72723ZM12 17.9504C10.8 17.9504 9.81814 16.9749 9.81814 15.7827C9.81814 14.5905 10.8 13.615 12 13.615C13.2 13.615 14.1818 14.5905 14.1818 15.7827C14.1818 16.9749 13.2 17.9504 12 17.9504Z" fill="white"/>
</svg>
